<?xml version="1.0" standalone="no"?>
<!DOCTYPE svg PUBLIC "-//W3C//DTD SVG 20010904//EN"
 "http://www.w3.org/TR/2001/REC-SVG-20010904/DTD/svg10.dtd">
<svg version="1.0" xmlns="http://www.w3.org/2000/svg"
 width="700.000000pt" height="700.000000pt" viewBox="0 0 700.000000 700.000000"
 preserveAspectRatio="xMidYMid meet">
<metadata>
Created by potrace 1.14, written by Peter Selinger 2001-2017
</metadata>
<g transform="translate(0.000000,700.000000) scale(0.100000,-0.100000)"
fill="#000000" stroke="none">
<path d="M3433 6893 c-28 -54 -115 -224 -193 -378 -78 -154 -198 -388 -265
-520 -68 -132 -170 -333 -228 -448 l-106 -207 43 -93 c24 -50 55 -117 69 -147
71 -156 384 -836 418 -908 21 -46 39 -85 39 -87 0 -2 23 -52 51 -112 28 -59
70 -151 94 -203 23 -52 62 -135 85 -185 23 -49 62 -133 85 -185 24 -52 61
-133 83 -180 22 -47 86 -186 142 -310 56 -123 106 -231 110 -240 31 -61 99
-210 105 -230 4 -14 11 -29 15 -35 4 -5 107 -228 230 -495 122 -267 242 -527
266 -579 24 -51 44 -95 44 -97 0 -1 25 -55 55 -119 30 -65 55 -119 55 -120 0
-2 18 -41 39 -87 44 -94 75 -161 156 -338 70 -152 100 -217 157 -340 24 -52
55 -118 68 -147 l23 -52 301 -1 c268 -1 822 -6 1414 -13 112 -1 205 -1 206 1
2 1 -45 98 -104 215 -59 117 -272 541 -475 942 -202 402 -479 951 -615 1220
-136 270 -397 787 -580 1150 -183 363 -439 872 -570 1130 -502 995 -1022 2027
-1087 2158 -37 75 -71 137 -74 137 -4 0 -29 -44 -56 -97z"/>
<path d="M2176 4383 c-231 -461 -810 -1623 -1288 -2583 -477 -960 -872 -1752
-878 -1761 -6 -13 -5 -18 8 -21 9 -2 172 -3 362 -3 378 1 386 3 445 62 17 17
111 191 221 409 105 208 359 712 564 1119 205 407 430 853 500 990 70 138 298
590 508 1005 l380 755 -17 35 c-9 19 -45 98 -80 175 -35 77 -78 172 -96 210
-18 39 -58 124 -88 190 -82 180 -118 255 -120 255 -1 0 -191 -377 -421 -837z"/>
<path d="M2060 790 c-141 -7 -183 -33 -238 -145 -35 -71 -122 -256 -122 -260
0 -1 -10 -24 -22 -51 -12 -27 -47 -112 -78 -189 l-56 -140 858 -3 c472 -1
1244 -1 1716 0 l859 3 -73 165 c-40 91 -84 192 -99 225 -14 33 -37 83 -51 112
-13 28 -24 54 -24 57 0 3 -18 44 -40 91 -22 47 -43 97 -46 110 -5 22 -12 25
-53 26 -245 3 -2459 3 -2531 -1z"/>
</g>
</svg>
